<svg xmlns="http://www.w3.org/2000/svg" xmlns:xlink="http://www.w3.org/1999/xlink" viewBox="0 0 111.33 111.33"><defs><style>.cls-1{isolation:isolate;}.cls-2,.cls-9{fill:#fdd835;}.cls-3{fill:#fbc02d;}.cls-4,.cls-5,.cls-6,.cls-7{mix-blend-mode:multiply;}.cls-4{fill:url(#linear-gradient);}.cls-6{fill:url(#radial-gradient);}.cls-7{fill:url(#radial-gradient-2);}.cls-8,.cls-9{font-size:75.43px;font-family:Arial-BoldMT, Arial;font-weight:700;}.cls-8{fill:#f3933d;}</style><linearGradient id="linear-gradient" x1="55.67" y1="52" x2="55.67" y2="136.76" gradientUnits="userSpaceOnUse"><stop offset="0.02" stop-color="#fff" stop-opacity="0"/><stop offset="1" stop-color="#f7a826"/></linearGradient><radialGradient id="radial-gradient" cx="56.17" cy="53.67" r="136.77" xlink:href="#linear-gradient"/><radialGradient id="radial-gradient-2" cx="56.17" cy="53.67" r="136.77" xlink:href="#linear-gradient"/></defs><g class="cls-1"><g id="Layer_2" data-name="Layer 2"><g id="Ebene_1" data-name="Ebene 1"><circle class="cls-2" cx="55.67" cy="55.67" r="55.67" transform="translate(-11.3 97.05) rotate(-76.72)"/><circle class="cls-3" cx="55.67" cy="55.28" r="50.38"/><circle class="cls-4" cx="55.67" cy="55.28" r="50.38"/><g class="cls-5"><path class="cls-6" d="M7.22,55.28C7.22,27.46,28.91,4.9,55.67,4.9a50.39,50.39,0,1,0,0,100.77C28.91,105.67,7.22,83.11,7.22,55.28Z"/><path class="cls-7" d="M55.67,4.9c26.75,0,48.44,22.56,48.44,50.38s-21.69,50.39-48.44,50.39a50.39,50.39,0,0,0,0-100.77Z"/></g><text class="cls-8" transform="translate(35.19 81.47)">$</text><text class="cls-9" transform="translate(34.19 80.02)">$</text></g></g></g></svg>